# xmcd
#
# Track frame offsets:
# 182
# 12842
# 27155
# 44045
# 60952
# 80537
# 96455
# 114287
# 132447
# 145872
# 161142
# 175270
#
# Disc length: 2507 seconds
#
# Revision: 1
# Processed by: cddbd v1.5.2PL0 Copyright (c) Steve Scherf et al.
# Submitted via: Axialis_AX_CDPlayer 2.6
#
DISCID=9e09c90c
DTITLE=Various Artist - Country Lovin Volume One
DYEAR=1900
DGENRE=Country
TTITLE0=Confederate Railroad-She Took It Like A Man
TTITLE1=Neal McCoy-Where Forever Begins
TTITLE2=Emmylou Harris-Beneath Still Waters
TTITLE3=T.G. Sheppard-Last Cheater's Waltz
TTITLE4=Eddie Rabbit-Suspicions
TTITLE5=Johnny Lee-Lookin For Love
TTITLE6=Mel Tillis-Blind In Love
TTITLE7=Conway Twitty-The Clown
TTITLE8=John Anderson-1959
TTITLE9=Michael Martin Murphy-A Long Line Of Love
TTITLE10=Eart Thomas Conley-Stranded On A Dead End Street
TTITLE11=T.G. Sheppard-Karen Brooks-Faking Love
EXTD=
EXTT0=
EXTT1=
EXTT2=
EXTT3=
EXTT4=
EXTT5=
EXTT6=
EXTT7=
EXTT8=
EXTT9=
EXTT10=
EXTT11=
PLAYORDER=
